<svg xmlns="http://www.w3.org/2000/svg" fill="none" viewBox="0 0 560 560">
    <style>
    path {
        fill: #4F45E4;
    }
    @media (prefers-color-scheme: dark) {
        path { fill: #FFF; }
    }
    </style>
    <path d="M415.98 404.75c.58 1.26 1.2 2.51 1.86 3.73l-1.86-3.73Z"/>
    <path d="m534.89 352.2-.01-.01c-.96-2.27-2.09-4.46-3.29-6.59l-95.96-192.17-.05.02c-10.67-21.3-32.64-35.95-58.09-35.95-35.9 0-65 29.1-65 65 0 10.46 2.53 20.3 6.91 29.05l-.05.02 96.61 193.17c-.2-.44-.38-.89-.57-1.33.75 1.72 1.55 3.42 2.44 5.06a62.532 62.532 0 0 0 3.73 5.98c.93 1.35 1.91 2.66 2.94 3.93.15.19.29.38.44.57 1.17 1.41 2.42 2.76 3.7 4.07.33.34.67.66 1.01.99 1.1 1.07 2.24 2.11 3.41 3.1.28.23.54.48.82.71 1.42 1.16 2.89 2.25 4.4 3.29.36.24.72.47 1.09.71 1.27.83 2.57 1.62 3.89 2.37.38.21.76.44 1.14.64 1.63.87 3.29 1.68 5 2.41.33.14.68.27 1.02.4 1.45.59 2.92 1.13 4.42 1.62.46.15.91.3 1.38.44 1.81.54 3.64 1.03 5.5 1.41.24.05.49.08.73.13 1.66.33 3.35.58 5.06.77.51.06 1.03.11 1.54.16 1.95.18 3.92.3 5.92.3 35.9 0 65-29.1 65-65 .03-8.94-1.79-17.49-5.08-25.27Zm-123.41 39.04c.36 1.68.79 3.34 1.28 4.97-.49-1.63-.91-3.29-1.28-4.97ZM240.63 153.43l-.05.02c-10.67-21.3-32.64-35.95-58.09-35.95-25.43 0-47.4 14.64-58.07 35.93h-.07S26.19 349.72 25.27 351.85l-.11.23A65 65 0 0 0 20 378.74c.63 33.85 28.16 62.17 61.98 63.7C119.26 444.11 150 414.4 150 377.5c0-27.52-17.11-51.01-41.27-60.49-9.1-3.57-13.25-14.1-8.88-22.85l25.78-51.62c2.93-5.86 11.29-5.86 14.22 0 0 0 82.33 164.71 82.99 165.93v.01c12.04 22.16 36.58 36.53 64.15 33.65 30.61-3.19 55.19-28.4 57.77-59.07 1.15-13.69-2-26.55-8.17-37.48l-95.96-192.15Z"/>
</svg>
